<?xml version="1.0" encoding="utf-8"?>
<!-- Generator: Adobe Illustrator 24.3.0, SVG Export Plug-In . SVG Version: 6.00 Build 0)  -->
<svg version="1.1" id="Layer_1" xmlns="http://www.w3.org/2000/svg" xmlns:xlink="http://www.w3.org/1999/xlink" x="0px" y="0px"
	 viewBox="0 0 1366 768" style="enable-background:new 0 0 1366 768;" xml:space="preserve">
<style type="text/css">
	.st0{fill:#A28700;}
	.st1{fill:#FF7400;}
	.st2{fill:none;stroke:#000000;stroke-width:2;stroke-miterlimit:10;}
	.st3{font-family:'MyriadPro-Regular';}
	.st4{font-size:18px;}
</style>
<g>
	<circle cx="302" cy="326" r="44.5"/>
	<path d="M302,282c24.26,0,44,19.74,44,44s-19.74,44-44,44s-44-19.74-44-44S277.74,282,302,282 M302,281c-24.85,0-45,20.15-45,45
		s20.15,45,45,45s45-20.15,45-45S326.85,281,302,281L302,281z"/>
</g>
<g>
	<circle class="st0" cx="573" cy="511" r="109.5"/>
	<path d="M573,402c29.11,0,56.49,11.34,77.07,31.93S682,481.89,682,511c0,29.11-11.34,56.49-31.93,77.07S602.11,620,573,620
		s-56.49-11.34-77.07-31.93C475.34,567.49,464,540.11,464,511c0-29.11,11.34-56.49,31.93-77.07C516.51,413.34,543.89,402,573,402
		 M573,401c-60.75,0-110,49.25-110,110s49.25,110,110,110s110-49.25,110-110S633.75,401,573,401L573,401z"/>
</g>
<g>
	<rect x="827.5" y="165.5" class="st1" width="205" height="205"/>
	<path d="M1032,166v204H828V166H1032 M1033,165H827v206h206V165L1033,165z"/>
</g>
<polyline class="st2" points="316.5,309.5 372.5,190.5 476.44,190.5 "/>
<text transform="matrix(1 0 0 1 485.356 190.7124)" class="st3 st4">this is a legend for this shape</text>
</svg>
